<?xml version="1.0" encoding="iso-8859-1"?>
<!-- Generator: Adobe Illustrator 19.0.0, SVG Export Plug-In . SVG Version: 6.00 Build 0)  -->
<svg version="1.1" id="Capa_1" xmlns="http://www.w3.org/2000/svg" xmlns:xlink="http://www.w3.org/1999/xlink" x="0px" y="0px"
	 viewBox="0 0 512 512" style="enable-background:new 0 0 512 512;" xml:space="preserve">
<path style="fill:#67D5FF;" d="M439.357,45.842c-0.383,0-0.762,0.02-1.143,0.029c-5.298-26.169-28.426-45.87-56.158-45.87
	c-29.903,0-54.442,22.908-57.057,52.129c-6.799-3.991-14.712-6.289-23.165-6.289c-11.444,0-21.9,4.202-29.932,11.135v11.786
	l98.697,68.763h68.76c25.318,0,45.842-20.524,45.842-45.842S464.674,45.842,439.357,45.842z"/>
<g>
	<path style="fill:#4DCEFD;" d="M372.029,91.682c0,5.933,4.81,10.744,10.744,10.744c5.933,0,10.744-4.81,10.744-10.744v0.002
		c0-25.318,20.524-45.842,45.842-45.842c9.197,0,9.195-0.001-0.001-0.001c-0.383,0-0.762,0.02-1.143,0.029
		c-1.534-7.578-4.572-14.607-8.775-20.779c-32.439,4.812-57.41,32.837-57.41,66.594"/>
	<path style="fill:#4DCEFD;" d="M439.357,45.842c-0.383,0-0.762,0.02-1.143,0.029c-5.298-26.169-28.426-45.87-56.158-45.87
		c-5.347,0-10.518,0.745-15.427,2.115c20.546,5.74,36.435,22.638,40.711,43.755c0.381-0.009,0.76-0.029,1.143-0.029
		c25.318,0,45.841,20.524,45.841,45.841s-20.524,45.842-45.841,45.842h30.874c25.318,0,45.842-20.524,45.842-45.842
		S464.674,45.842,439.357,45.842z"/>
</g>
<polygon style="fill:#DCF3F4;" points="95.549,39.756 95.547,171.906 175.771,115.75 175.771,39.756 "/>
<polygon style="fill:#B0CDCF;" points="175.771,39.756 141.404,39.756 141.405,139.804 175.771,115.75 "/>
<path style="fill:#A8D2D7;" d="M192.496,0.005H78.825c-3.422,0-6.196,2.774-6.196,6.196v33.45c0,3.422,2.774,6.196,6.196,6.196
	h113.672c3.422,0,6.196-2.774,6.196-6.196V6.201C198.692,2.779,195.919,0.005,192.496,0.005z"/>
<path style="fill:#84B0B5;" d="M192.497,0.004L164.311,0l0.017,45.846h28.169c3.422,0,6.196-2.774,6.196-6.196V6.2
	C198.692,2.779,195.919,0.005,192.497,0.004z"/>
<path style="fill:#DCF3F4;" d="M433.163,504.255H78.82c-3.422,0-6.196-2.774-6.196-6.196V194.829h366.734v303.232
	C439.359,501.482,436.585,504.255,433.163,504.255z"/>
<path style="fill:#B0CDCF;" d="M404.992,504.255h28.17c3.422,0,6.196-2.774,6.196-6.196V194.829h-34.366V504.255z"/>
<path style="fill:#4FD255;" d="M46.441,206.287h419.103c6.057,0,8.516-7.797,3.553-11.271L259.544,48.328
	c-2.133-1.493-4.973-1.493-7.107,0L42.887,195.016C37.925,198.489,40.383,206.287,46.441,206.287z"/>
<path style="fill:#2CB855;" d="M252.438,48.328l-29.191,20.435l204.667,137.524h37.63c6.057,0,8.516-7.797,3.553-11.271
	L259.544,48.328C257.411,46.833,254.571,46.833,252.438,48.328z"/>
<g>
	<path style="fill:#E0B07B;" d="M255.994,511.995c-4.278,0-7.745-3.468-7.745-7.745v-91.678c0-4.277,3.467-7.745,7.745-7.745
		c4.278,0,7.745,3.468,7.745,7.745v91.678C263.739,508.527,260.272,511.995,255.994,511.995z"/>
	<path style="fill:#E0B07B;" d="M255.998,489.079c-2.354,0-4.68-1.07-6.202-3.099c-2.566-3.422-1.873-8.276,1.549-10.842
		l37.44-27.885c3.424-2.565,8.277-1.871,10.843,1.549c2.566,3.422,1.872,8.276-1.549,10.842l-37.44,27.885
		C259.246,488.575,257.616,489.079,255.998,489.079z"/>
	<path style="fill:#E0B07B;" d="M255.986,489.079c-1.616,0-3.248-0.504-4.641-1.55l-33.166-24.915
		c-3.421-2.566-4.115-7.42-1.549-10.842c2.566-3.421,7.418-4.116,10.843-1.549l33.166,24.916c3.421,2.566,4.115,7.42,1.549,10.842
		C260.667,488.009,258.341,489.079,255.986,489.079z"/>
</g>
<path style="fill:#4FD255;" d="M255.995,240.668c-31.638,18.31-52.941,52.497-52.941,91.682s21.302,73.372,52.941,91.682
	c31.64-18.31,52.941-52.497,52.941-91.682S287.634,258.978,255.995,240.668z"/>
<path style="fill:#2CB855;" d="M255.995,240.668c-6.149,3.558-11.902,7.724-17.19,12.403c21.918,19.393,35.751,47.711,35.751,79.279
	s-13.833,59.887-35.751,79.279c5.288,4.678,11.041,8.843,17.19,12.403c31.64-18.31,52.941-52.497,52.941-91.682
	S287.634,258.978,255.995,240.668z"/>
<path style="fill:#4FD255;" d="M359.108,403.997c-16.816-7.162-36.882-5.425-52.555,6.331
	c-15.673,11.756-22.957,30.534-20.789,48.683c16.816,7.162,36.882,5.425,52.555-6.331
	C353.993,440.924,361.276,422.146,359.108,403.997z"/>
<path style="fill:#2CB855;" d="M359.108,403.997c-3.73-1.588-7.624-2.713-11.59-3.414c-1.534,14.048-8.624,27.452-20.821,36.601
	c-12.197,9.149-27.051,12.204-40.966,9.745c-0.437,4.003-0.448,8.056,0.033,12.082c16.816,7.162,36.882,5.425,52.555-6.331
	C353.993,440.924,361.276,422.146,359.108,403.997z"/>
<path style="fill:#4FD255;" d="M152.877,403.997c16.816-7.162,36.882-5.425,52.555,6.331c15.673,11.756,22.957,30.534,20.789,48.683
	c-16.816,7.162-36.882,5.425-52.555-6.331C157.991,440.924,150.707,422.146,152.877,403.997z"/>
<path style="fill:#2CB855;" d="M152.877,403.997c3.73-1.588,7.624-2.713,11.59-3.414c1.534,14.048,8.624,27.452,20.821,36.601
	c12.197,9.149,27.049,12.204,40.966,9.745c0.437,4.003,0.448,8.056-0.033,12.082c-16.816,7.162-36.882,5.425-52.555-6.331
	C157.991,440.924,150.707,422.146,152.877,403.997z"/>
<path style="fill:#E0B07B;" d="M485.214,512H26.786c-4.278,0-7.745-3.468-7.745-7.745c0-4.277,3.467-7.745,7.745-7.745h458.429
	c4.278,0,7.745,3.468,7.745,7.745C492.959,508.532,489.491,512,485.214,512z"/>
<g>
</g>
<g>
</g>
<g>
</g>
<g>
</g>
<g>
</g>
<g>
</g>
<g>
</g>
<g>
</g>
<g>
</g>
<g>
</g>
<g>
</g>
<g>
</g>
<g>
</g>
<g>
</g>
<g>
</g>
</svg>
