<svg height="512pt" viewBox="-98 0 512 512" width="512pt" xmlns="http://www.w3.org/2000/svg"><path d="m315 0c-61.03125 0-111.007812 46.96875-118.484375 106h-3.03125c-7.476563-59.03125-57.453125-106-118.484375-106 0 61.03125 45.96875 112.007812 105 119.484375v181.515625h-90v-75h15c16.539062 0 30-13.460938 30-30v-30h-30c-16.539062 0-30 13.460938-30 30 0-16.539062-13.460938-30-30-30h-30v30c0 16.539062 13.460938 30 30 30h15v75h-60v60h270v-60h-60v-181.515625c59.03125-7.476563 105-58.453125 105-119.484375zm0 0"/><path d="m63.28125 512h143.4375l29.988281-121h-203.414062zm0 0"/></svg>