<svg height="512pt" viewBox="-31 0 512 512.001" width="512pt" xmlns="http://www.w3.org/2000/svg"><path d="m429.71875 434.125c6.699219-45.378906 7.699219-94.964844 2.96875-147.480469-3.882812-43.070312-11.503906-86.023437-22.117188-124.90625 15.640626-1.667969 27.867188-14.941406 27.867188-31.046875 0-17.199218-13.992188-31.195312-31.191406-31.195312h-16.339844c-3.925781-18.574219-22.179688-33.398438-45.585938-36.6875-4.105468-23.84375-29.507812-42.371094-60.414062-43.03125-13.398438-12.605469-32.855469-19.777344-53.949219-19.777344-21.1875 0-40.660156 7.199219-54.0625 19.863281-1.375-.070312-2.761719-.105469-4.152343-.105469-31.648438 0-57.898438 18.734376-62.117188 43.050782-23.414062 3.285156-41.671875 18.109375-45.597656 36.6875h-15.945313c-17.214843 0-31.21875 13.996094-31.21875 31.226562 0 13.96875 9.242188 25.828125 21.9375 29.785156-10.792969 39.203126-18.527343 82.613282-22.449219 126.140626-4.730468 52.515624-3.730468 102.101562 2.96875 147.476562-15.773437 11.625-23.675781 31.226562-18.96875 48.378906 2.433594 8.867188 12.171876 29.496094 49.945313 29.496094h347.445313c37.773437 0 47.511718-20.628906 49.945312-29.496094 4.707031-17.152344-3.195312-36.753906-18.96875-48.378906zm-311.847656-356.945312c4.003906-.183594 7.15625-3.566407 7.15625-7.574219 0-19.21875 21.40625-34.851563 47.714844-34.851563 2.132812 0 4.25.101563 6.292968.300782 2.316406.230468 4.605469-.628907 6.199219-2.328126 10.429687-11.101562 27.523437-17.730468 45.722656-17.730468 18.015625 0 35.007813 6.527344 45.453125 17.464844 1.527344 1.601562 3.6875 2.4375 5.886719 2.304687.300781-.015625.597656-.011719.894531-.011719 26.3125 0 47.714844 15.632813 47.714844 34.851563v.085937c0 4.007813 3.152344 7.308594 7.15625 7.488282 18.109375.824218 32.941406 10.105468 37.324219 22.320312h-294.839844c4.382813-12.214844 19.214844-21.496094 37.324219-22.320312zm316.355468 401.355468c-3.265624 11.910156-15.867187 18.46875-35.484374 18.46875h-347.449219c-19.613281 0-32.214844-6.558594-35.484375-18.46875-3.160156-11.523437 3.167968-25.523437 14.8125-33.320312h183.898437c4.140625 0 7.496094-3.355469 7.496094-7.496094s-3.355469-7.496094-7.496094-7.496094h-179.605469c-11.773437-82.007812-4.355468-181.324218 20.066407-268.308594h159.539062c4.140625 0 7.496094-3.355468 7.496094-7.496093s-3.355469-7.496094-7.496094-7.496094h-165.335937c-.007813 0-.015625 0-.023438 0h-.078125c-8.945312 0-16.226562-7.269531-16.226562-16.230469 0-8.933594 7.28125-16.199218 16.226562-16.199218h358.164063c8.929687 0 16.195312 7.265624 16.195312 16.226562 0 8.933594-7.265625 16.203125-16.195312 16.203125h-6.363282c-.015624 0-.03125 0-.050781 0h-151.707031c-4.144531 0-7.5 3.355469-7.5 7.496094s3.355469 7.496093 7.5 7.496093h145.933594c24.417968 86.984376 31.839844 186.300782 20.0625 268.304688h-159.363282c-4.140624 0-7.5 3.355469-7.5 7.5 0 4.140625 3.359376 7.496094 7.5 7.496094h163.65625c11.648438 7.796875 17.976563 21.796875 14.8125 33.320312zm0 0"/><path d="m299.832031 390.335938c1.480469 1.671874 3.542969 2.523437 5.609375 2.523437 1.773438 0 3.546875-.625 4.976563-1.890625 3.097656-2.75 3.378906-7.488281.628906-10.585938l-24.65625-27.78125c18.667969-19.535156 23.792969-44.382812 14.359375-70.628906-7.734375-21.519531-24.777344-41.914062-47.980469-57.425781-24.0625-16.085937-53.234375-25.621094-82.148437-26.847656-.128906-.007813-.253906-.007813-.382813-.007813-10.503906.089844-18.742187 3.125-24.484375 9.019532-6.308594 6.472656-9.269531 15.808593-9.050781 28.53125.539063 33.738281 7.574219 64.253906 20.339844 88.253906 11.910156 22.394531 28.339843 38.671875 47.511719 47.078125 9.46875 4.152343 19.140624 6.203125 28.6875 6.203125 14.65625 0 29.007812-4.84375 41.875-14.289063zm-89.257812-33.492188c-27.714844-12.152344-57.738281-50.542969-58.878907-121.847656-.140624-8.414063 1.472657-14.40625 4.796876-17.820313 2.863281-2.9375 7.34375-4.40625 13.691406-4.488281 59.214844 2.59375 104.183594 40.222656 116.457031 74.359375 5.214844 14.511719 7.300781 35.238281-10.246094 54.292969l-14.277343-16.089844 3.515624-27.816406c.519532-4.105469-2.390624-7.859375-6.5-8.378906-4.105468-.511719-7.855468 2.390624-8.378906 6.5l-1.867187 14.789062-18.59375-20.953125 2.742187-21.601563c.523438-4.105468-2.382812-7.859374-6.488281-8.382812-4.121094-.519531-7.863281 2.382812-8.386719 6.492188l-1.089844 8.597656-12.164062-13.707032c-2.75-3.097656-7.488281-3.378906-10.585938-.628906-3.097656 2.746094-3.378906 7.484375-.628906 10.582032l12.53125 14.121093-10.835937.367188c-4.136719.140625-7.378907 3.609375-7.238281 7.746093.136718 4.054688 3.464843 7.242188 7.488281 7.242188.082031 0 .171875 0 .257812-.003906l23.253907-.785156 18.898437 21.292968-17.492187.59375c-4.140626.140625-7.378907 3.605469-7.238282 7.746094.136719 4.050781 3.464844 7.242188 7.488282 7.242188.082031 0 .171874 0 .257812-.003907l29.910156-1.015625 14.132813 15.925782c-16.617188 11.597656-36.101563 13.710937-54.53125 5.632812zm0 0"/></svg>