<svg height="512pt" viewBox="0 0 512.00015 512" width="512pt" xmlns="http://www.w3.org/2000/svg"><path d="m501.898438 443.910156h-18.792969l28.691406-139.964844c.601563-2.941406-.148437-6-2.046875-8.328124-1.898438-2.324219-4.746094-3.675782-7.746094-3.675782h-25.1875c22.996094-39.742187 35.082032-84.613281 35.082032-130.851562v-16.117188c0-3.664062-2.007813-7.035156-5.226563-8.785156s-7.136719-1.597656-10.210937.394531l-2.378907 1.542969c-23.078125 14.957031-42.308593 34.660156-56.597656 57.789062-4.4375-16.855468-10.984375-33.070312-19.601563-48.449218l-4.140624-7.382813c-1.769532-3.15625-5.101563-5.109375-8.722657-5.109375-3.617187 0-6.949219 1.957032-8.71875 5.109375l-4.140625 7.382813c-8.617187 15.378906-15.164062 31.59375-19.597656 48.449218-14.292969-23.128906-33.523438-42.832031-56.597656-57.789062l-2.382813-1.542969c-3.074219-1.992187-6.992187-2.144531-10.210937-.394531s-5.222656 5.121094-5.222656 8.785156v16.121094c0 46.238281 12.082031 91.105469 35.078124 130.847656h-25.183593c-3.003907 0-5.851563 1.351563-7.75 3.679688-1.898438 2.328125-2.648438 5.382812-2.046875 8.328125l28.695312 139.964843h-316.945312c-5.519532 0-9.996094 4.476563-9.996094 9.996094v47.992188c0 5.519531 4.476562 9.996094 9.996094 9.996094h491.902344c5.519531 0 10-4.476563 10-9.996094v-47.992188c0-5.523437-4.480469-10-10-10zm-10.019532-279.601562c-.59375 45.488281-13.859375 89.433594-38.488281 127.632812h-13.625c4.503906-21.050781 5.683594-42.519531 3.503906-64.03125.078125-.15625.160157-.308594.230469-.46875 10.796875-24.839844 27.371094-46.410156 48.378906-63.132812zm-86.855468 1.625c19.410156 39.226562 24.410156 83.363281 14.25 126.007812h-28.503907c-10.15625-42.644531-5.15625-86.78125 14.253907-126.007812zm-86.859376-1.625c21.011719 16.722656 37.582032 38.292968 48.378907 63.132812.070312.160156.15625.3125.234375.46875-2.183594 21.511719-1.003906 42.980469 3.5 64.03125h-13.621094c-24.628906-38.199218-37.894531-82.144531-38.492188-127.632812zm2.132813 147.628906h30.964844.015625 75.710937.035157.058593 31.671875.015625.015625 30.960938l-27.054688 131.972656h-115.339844zm171.605469 179.964844h-471.90625v-27.996094h471.90625zm0 0"/><path d="m86.148438 259.152344c5.152343 1.972656 10.933593-.609375 12.90625-5.765625 1.972656-5.160157-.609376-10.9375-5.769532-12.910157-43.835937-16.757812-73.289062-59.558593-73.289062-106.503906 0-62.847656 51.128906-113.976562 113.976562-113.976562s113.976563 51.128906 113.976563 113.976562c0 46.949219-29.453125 89.75-73.292969 106.507813-5.160156 1.96875-7.742188 7.75-5.769531 12.90625 1.519531 3.984375 5.3125 6.433593 9.339843 6.433593 1.1875 0 2.394532-.214843 3.566407-.664062 25.070312-9.582031 46.496093-26.308594 61.960937-48.375 15.828125-22.582031 24.191406-49.140625 24.191406-76.808594 0-73.871094-60.097656-133.972656-133.972656-133.972656-73.871094 0-133.972656 60.101562-133.972656 133.972656 0 27.667969 8.363281 54.226563 24.1875 76.804688 15.464844 22.066406 36.890625 38.792968 61.960938 48.375zm0 0"/><path d="m227.953125 133.972656c0-51.820312-42.160156-93.980468-93.980469-93.980468-51.820312 0-93.980468 42.160156-93.980468 93.980468 0 51.820313 42.160156 93.980469 93.980468 93.980469 51.820313 0 93.980469-42.160156 93.980469-93.980469zm-93.980469 73.984375c-40.796875 0-73.984375-33.1875-73.984375-73.984375s33.1875-73.984375 73.984375-73.984375 73.984375 33.1875 73.984375 73.984375-33.1875 73.984375-73.984375 73.984375zm0 0"/><path d="m159.148438 94.660156-25.175782 25.171875-9.050781-9.050781c-3.90625-3.902344-10.234375-3.902344-14.140625 0-3.90625 3.90625-3.90625 10.234375 0 14.140625l16.121094 16.121094c1.953125 1.953125 4.511718 2.929687 7.070312 2.929687s5.117188-.976562 7.070313-2.929687l32.242187-32.242188c3.902344-3.90625 3.902344-10.234375 0-14.140625s-10.234375-3.90625-14.136718 0zm0 0"/><path d="m126.90625 250.878906c-1.863281 1.859375-2.929688 4.4375-2.929688 7.066406 0 2.632813 1.066407 5.210938 2.929688 7.070313 1.859375 1.859375 4.4375 2.929687 7.066406 2.929687s5.210938-1.070312 7.066406-2.929687c1.859376-1.859375 2.933594-4.4375 2.933594-7.070313 0-2.628906-1.070312-5.207031-2.933594-7.066406-1.855468-1.859375-4.4375-2.929687-7.066406-2.929687s-5.207031 1.070312-7.066406 2.929687zm0 0"/></svg>